<?xml version="1.0" standalone="no"?>
<!DOCTYPE svg PUBLIC "-//W3C//DTD SVG 20010904//EN"
 "http://www.w3.org/TR/2001/REC-SVG-20010904/DTD/svg10.dtd">
<svg version="1.0" xmlns="http://www.w3.org/2000/svg"
 width="239.000000pt" height="239.000000pt" viewBox="0 0 239.000000 239.000000"
 preserveAspectRatio="xMidYMid meet">
<metadata>
Created by potrace 1.14, written by Peter Selinger 2001-2017
</metadata>
<g transform="translate(0.000000,239.000000) scale(0.100000,-0.100000)"
fill="#000000" stroke="none">
<path d="M799 1748 c-1 -7 -1 -26 -1 -42 l1 -28 -92 7 c-50 4 -94 8 -97 10 -3
1 -36 6 -75 9 -38 4 -81 8 -95 10 -14 3 -50 7 -80 10 -144 14 -176 18 -187 21
-14 5 -14 0 -14 -649 0 -192 3 -351 5 -353 4 -4 196 13 254 22 13 2 53 7 90
10 37 4 77 8 89 10 31 5 181 18 190 16 5 0 8 -9 9 -20 2 -26 13 -42 25 -35 6
3 27 7 47 9 35 3 86 8 192 20 25 3 68 7 95 10 28 3 61 7 75 10 14 2 54 6 90
10 36 3 79 8 97 10 29 3 31 2 28 -23 -4 -42 3 -51 38 -46 40 6 87 11 157 19
30 3 66 7 80 10 14 2 57 6 95 9 39 3 70 6 70 6 0 3 34 8 95 14 36 3 85 8 110
11 55 6 105 12 190 21 36 3 70 10 75 14 14 11 14 785 0 799 -6 5 -35 12 -65
15 -30 2 -89 7 -130 11 -41 4 -81 9 -89 11 -8 3 -51 7 -95 10 -45 3 -88 8 -96
10 -8 3 -46 8 -85 10 -38 3 -80 7 -93 10 -21 4 -128 16 -159 17 -7 0 -13 4
-13 9 0 4 -18 8 -39 8 -43 0 -55 -15 -46 -58 3 -19 1 -22 -23 -17 -15 2 -58 7
-97 11 -38 3 -81 7 -95 10 -14 2 -52 6 -85 10 -33 3 -71 8 -85 10 -14 2 -61 7
-105 10 -44 4 -90 11 -103 15 -33 12 -52 11 -53 -3z m231 -163 c126 -12 404
-45 408 -49 9 -10 6 -576 -3 -577 -31 -4 -57 -7 -115 -13 -88 -9 -296 -35
-342 -42 l-38 -6 0 351 c0 276 3 350 13 346 6 -2 41 -6 77 -10z m-630 -9 c25
-3 74 -8 110 -12 36 -3 76 -7 90 -10 14 -2 60 -7 103 -10 43 -4 81 -12 85 -18
8 -13 11 -576 3 -577 -20 -3 -55 -7 -116 -13 -38 -4 -101 -12 -139 -17 -38 -5
-106 -12 -151 -15 l-82 -7 0 339 c0 187 1 342 4 347 2 4 14 5 26 3 12 -3 42
-7 67 -10z m1350 -1 c19 -3 78 -10 130 -15 52 -5 106 -12 120 -14 42 -7 180
-18 183 -14 2 1 10 -2 18 -9 12 -9 14 -59 14 -272 -1 -153 -5 -264 -10 -270
-6 -4 -84 -16 -175 -25 -91 -10 -183 -20 -205 -22 -22 -3 -53 -7 -70 -9 -16
-2 -60 -7 -97 -10 l-68 -6 0 334 c0 183 3 337 7 340 6 7 72 3 153 -8z"/>
</g>
</svg>
